<?xml version="1.0" standalone="no"?>
<!DOCTYPE svg PUBLIC "-//W3C//DTD SVG 20010904//EN"
 "http://www.w3.org/TR/2001/REC-SVG-20010904/DTD/svg10.dtd">
<svg version="1.0" xmlns="http://www.w3.org/2000/svg"
 width="64.000000pt" height="64.000000pt" viewBox="0 0 64.000000 64.000000"
 preserveAspectRatio="xMidYMid meet">

<g transform="translate(0.000000,64.000000) scale(0.100000,-0.100000)"
fill="#000000" stroke="none">
<path d="M358 278 c-16 -5 -28 -14 -28 -19 0 -4 7 -6 15 -2 10 3 15 0 13 -8
-4 -18 31 -13 52 7 13 13 13 16 0 24 -18 11 -17 11 -52 -2z"/>
<path d="M193 235 c-3 -9 -3 -19 1 -22 3 -4 6 -1 6 5 0 7 7 12 16 12 8 0 13
-4 9 -9 -8 -14 9 -21 25 -11 11 7 11 11 1 24 -17 20 -50 21 -58 1z"/>
<path d="M427 183 c-4 -3 -2 -12 4 -19 14 -17 -14 -60 -54 -80 -27 -15 -30
-14 -48 5 -24 25 -32 26 -64 5 -27 -18 -34 -40 -10 -30 8 3 15 1 15 -4 0 -5 7
-7 15 -4 20 8 45 -13 45 -37 0 -17 3 -16 36 6 20 14 41 25 45 25 14 0 28 34
35 88 6 48 -1 64 -19 45z"/>
<path d="M480 96 c0 -26 19 -39 41 -26 11 7 10 13 -5 29 -25 27 -36 26 -36 -3z"/>
</g>
</svg>
